<?xml version="1.0" standalone="no"?><!DOCTYPE svg PUBLIC "-//W3C//DTD SVG 1.1//EN" "http://www.w3.org/Graphics/SVG/1.1/DTD/svg11.dtd"><svg t="1732786449056" class="icon" viewBox="0 0 1024 1024" version="1.1" xmlns="http://www.w3.org/2000/svg" p-id="2483" xmlns:xlink="http://www.w3.org/1999/xlink" width="200" height="200"><path d="M384 128v85.333333H170.666667v597.333334h682.666666v-384h85.333334v426.666666a42.666667 42.666667 0 0 1-42.666667 42.666667H128a42.666667 42.666667 0 0 1-42.666667-42.666667V170.666667a42.666667 42.666667 0 0 1 42.666667-42.666667h256z m424.533333 85.333333L682.666667 87.466667 742.997333 27.136l227.84 227.84A25.6 25.6 0 0 1 952.746667 298.666667H597.333333a85.333333 85.333333 0 0 0-85.333333 85.333333v256h-85.333333V384a170.666667 170.666667 0 0 1 170.666666-170.666667h211.2z" p-id="2484"></path></svg>